<svg width="23" height="23" viewBox="0 0 23 23" fill="none" xmlns="http://www.w3.org/2000/svg">
<g clip-path="url(#clip0_3_24)">
<path d="M22.0728 21.0522C21.9717 20.9524 21.8434 20.8849 21.704 20.858C21.5645 20.8312 21.4203 20.8462 21.2894 20.9012C21.2011 20.9355 21.1205 20.9867 21.0522 21.0522C20.9856 21.1193 20.9329 21.199 20.8971 21.2866C20.8613 21.3741 20.8432 21.4679 20.8438 21.5625C20.8432 21.6571 20.8613 21.7509 20.8971 21.8384C20.9329 21.926 20.9856 22.0056 21.0522 22.0728C21.1221 22.1363 21.2023 22.1873 21.2894 22.2237C21.3754 22.2618 21.4684 22.2814 21.5625 22.2814C21.6566 22.2814 21.7496 22.2618 21.8356 22.2237C21.9248 22.1915 22.0058 22.14 22.0729 22.0729C22.14 22.0058 22.1915 21.9248 22.2238 21.8356C22.2606 21.7492 22.2801 21.6564 22.2812 21.5625C22.2786 21.3722 22.2042 21.1899 22.0728 21.0522ZM18.4791 17.4584C18.3416 17.3407 18.1647 17.2792 17.9838 17.2861C17.8029 17.2931 17.6313 17.3681 17.5033 17.4961C17.3753 17.6241 17.3003 17.7957 17.2933 17.9766C17.2863 18.1575 17.3479 18.3344 17.4656 18.4719L18.9031 19.9094C19.0406 20.0271 19.2175 20.0886 19.3984 20.0817C19.5793 20.0747 19.7509 19.9997 19.8789 19.8717C20.0069 19.7437 20.0819 19.5721 20.0889 19.3912C20.0958 19.2103 20.0343 19.0334 19.9166 18.8959L18.4791 17.4584ZM14.0803 13.0669C15.318 11.5687 15.9314 9.65158 15.7931 7.71323C15.6549 5.77489 14.7757 3.96417 13.338 2.6568C11.9003 1.34944 10.0144 0.645812 8.07164 0.69192C6.12892 0.738027 4.27854 1.53033 2.90444 2.90443C1.53034 4.27853 0.738035 6.12892 0.691927 8.07164C0.64582 10.0144 1.34945 11.9002 2.65681 13.338C3.96418 14.7757 5.77489 15.6549 7.71324 15.7931C9.65158 15.9314 11.5687 15.318 13.0669 14.0803L15.3022 16.3156C15.4397 16.4334 15.6166 16.4949 15.7974 16.4879C15.9783 16.4809 16.1499 16.4059 16.2779 16.2779C16.4059 16.1499 16.4809 15.9783 16.4879 15.7974C16.4949 15.6165 16.4334 15.4397 16.3156 15.3022L14.0803 13.0669ZM8.26562 14.375C7.0573 14.375 5.87612 14.0167 4.87144 13.3454C3.86676 12.6741 3.0837 11.7199 2.6213 10.6036C2.15889 9.48723 2.03791 8.25884 2.27364 7.07374C2.50937 5.88863 3.09123 4.80005 3.94564 3.94564C4.80006 3.09123 5.88864 2.50936 7.07374 2.27363C8.25885 2.0379 9.48724 2.15889 10.6036 2.62129C11.7199 3.0837 12.6741 3.86675 13.3454 4.87143C14.0167 5.87611 14.375 7.0573 14.375 8.26562C14.3731 9.88534 13.7288 11.4382 12.5835 12.5835C11.4382 13.7288 9.88535 14.3731 8.26562 14.375Z" fill="black"/>
</g>
<defs>
<clipPath id="clip0_3_24">
<rect width="23" height="23" fill="white"/>
</clipPath>
</defs>
</svg>
